<?xml version="1.0" encoding="utf-8"?>
<!DOCTYPE svg PUBLIC "-//W3C//DTD SVG 1.0//EN" "http://www.w3.org/TR/2001/REC-SVG-20010904/DTD/svg10.dtd">
<svg version="1.0" xmlns="http://www.w3.org/2000/svg" width="68px" height="69px" viewBox="0 0 68 69" preserveAspectRatio="xMidYMid meet">
 <g fill="#e7314c">
  <path d="M29 67.9 c-12.5 -2 -22.3 -10.2 -26.6 -22.1 -2 -5.5 -2 -17.1 0 -22.6 4.9 -13.6 17.2 -22.3 31.6 -22.3 14.4 0 26.7 8.7 31.6 22.3 2 5.5 2 17.1 0 22.6 -5.5 15.2 -21.1 24.7 -36.6 22.1z m2 -28.4 c0 -0.8 -0.7 -1.5 -1.6 -1.5 -1.4 0 -1.4 0.3 -0.4 1.5 0.7 0.8 1.4 1.5 1.6 1.5 0.2 0 0.4 -0.7 0.4 -1.5z"/>
 </g>
 <g fill="#ffffff">
  <path d="M20.5 51 c-2.7 -1.6 -5.8 -3 -6.7 -3 -1.4 0 -1.8 -0.8 -1.8 -3.5 l0 -3.5 5.5 0 c4.8 0 6 0.4 8 2.6 3.7 3.9 3.3 5.5 -0.7 3.3 -1.1 -0.6 -2.2 -0.8 -2.5 -0.6 -1.2 1.2 6 3.7 10.6 3.7 4 0 5.2 0.4 6.1 2 1 1.9 0.8 2 -6.2 2 -6.3 0 -8 -0.4 -12.3 -3z"/>
  <path d="M39.3 50.5 c-1.6 -1.9 -3.1 -2.5 -6.2 -2.5 -2.5 0 -4.1 -0.5 -4.1 -1.2 0 -1.6 -5.1 -6.8 -6.7 -6.8 -3.1 0 0.5 -10 4.7 -13 3.7 -2.6 4 -2.5 4 1 0 2.3 0.5 3.1 2.6 3.6 1.4 0.4 3 0.2 3.7 -0.5 1.8 -1.8 2.5 -1.3 2.9 1.6 0.2 2 1.1 3 3.1 3.8 2.5 0.8 3.1 0.6 4.6 -1.4 1.6 -2.1 1.9 -2.1 2.4 -0.6 0.4 0.9 0.7 3 0.7 4.6 0 2.6 -0.4 2.9 -3 2.9 -1.6 0 -3 0.4 -3 0.9 0 0.4 1.1 0.6 2.5 0.3 2.9 -0.5 3 -0.1 1.1 3.7 -1.2 2.3 -5.6 6.2 -6.8 6.1 -0.2 0 -1.3 -1.2 -2.5 -2.5z m5.2 -2.6 c1.1 -1.7 0.2 -1.8 -1.9 -0.3 -1.7 1.2 -1.7 1.4 -0.4 1.4 0.9 0 2 -0.5 2.3 -1.1z m-5.7 -8.7 c0.3 -1.8 -0.1 -2.2 -2.2 -2.2 -1.9 0 -2.6 0.5 -2.6 1.8 0 3.9 4.3 4.3 4.8 0.4z"/>
  <path d="M35.6 40.3 c-1.1 -1.1 -0.6 -2.3 0.9 -2.3 0.8 0 1.5 0.4 1.5 0.9 0 1.3 -1.6 2.2 -2.4 1.4z"/>
  <path d="M43.3 35.3 c-0.7 -0.2 -1.3 -1.5 -1.3 -2.8 0 -3 -2.6 -5.3 -4.2 -3.7 -0.7 0.7 -2 1.2 -3 1.2 -1.3 0 -1.8 -0.8 -1.8 -3 0 -1.6 0.5 -3 1 -3 0.6 0 1 -0.8 1 -1.8 0 -1.2 -1.1 -2.1 -3.2 -2.7 -2.3 -0.7 -3.4 -1.7 -3.6 -3.2 -0.3 -2 0.1 -2.3 3.1 -2.3 1.9 0 4 -0.7 4.7 -1.5 1.6 -1.9 9 -2.1 9 -0.2 0 2.5 -3.1 5.7 -5.6 5.7 -2 0 -2.4 0.5 -2.4 2.8 0 2.5 0.6 3.1 3.8 4 2.1 0.7 4.8 2.3 6.1 3.6 2.2 2.3 2.2 2.5 0.6 5 -1.8 2.7 -2.1 2.8 -4.2 1.9z"/>
 </g>
</svg>